# xmcd
#
# Track frame offsets: 
#        150
#        14324
#        31612
#        78498
#        106678
#        133784
#
# Disc length: 2141 seconds
#
# Revision: 1
# Processed by: cddbd v1.5.2PL0 Copyright (c) Steve Scherf et al.
# Submitted via: ExactAudioCopy v0.95b4
#
DISCID=3a085b06
DTITLE=Dupree Bolton, Curtis Amy, Jack Wilson, Ray Crawford, Vic Gaski
DTITLE=n, Doug Sides - Katanga!
DYEAR=1963
DGENRE=Jazz
TTITLE0=Katanga <D. Bolton>
TTITLE1=Lonely Woman <C. Amy>
TTITLE2=Native Land <C. Amy>
TTITLE3=Amyable <J. Wilson>
TTITLE4=You Don't Know What Love Is <D. Raye, G. de Paul>
TTITLE5=A Shade Of Brown <C. Solomon>
EXTD=YEAR: 1963
EXTT0=
EXTT1=
EXTT2=
EXTT3=
EXTT4=
EXTT5=
PLAYORDER=
